# xmcd CD database file
#
# Track frame offsets:
#	150
#	24147
#	42727
#	68499
#	86989
#	101889
#	139719
#	160449
#	183894
#	206004
#	222206
#	239196
#	264528
#	279281
#	296001
#	315021
#	341611
#
# Disc length: 4721 seconds
#
# Revision: 1
# Processed by: cddbd v1.5.1PL0 Copyright (c) Steve Scherf et al.
# Submitted via: CDex 1.51
#
DISCID=00126f11
DTITLE=Livin Blues - Livin Blues
DYEAR=1900
DGENRE=Blues
TTITLE0=That Night
TTITLE1=Roses
TTITLE2=Back Stage
TTITLE3=AudioCrazy Joe
TTITLE4=Mignight Blus
TTITLE5=Blue Breeze
TTITLE6=Will You Still Love Me
TTITLE7=Rock &Roll Hoochie Coo
TTITLE8=Shannon
TTITLE9=Bus 29
TTITLE10=Punk Funk
TTITLE11=Shylina
TTITLE12=Pick Up On My Mojo
TTITLE13=Black Jack Billi
TTITLE14=Doomsday Night
TTITLE15=Back Stage 2
TTITLE16=Lazy Liza
EXTD=
EXTT0=
EXTT1=
EXTT2=
EXTT3=
EXTT4=
EXTT5=
EXTT6=
EXTT7=
EXTT8=
EXTT9=
EXTT10=
EXTT11=
EXTT12=
EXTT13=
EXTT14=
EXTT15=
EXTT16=
PLAYORDER=
